<?xml version="1.0" standalone="no"?>
 <!DOCTYPE svg PUBLIC "-//W3C//DTD SVG 1.1//EN" 
 "http://www.w3.org/Graphics/SVG/1.1/DTD/svg11.dtd"> 
<svg
  xmlns:svg="http://www.w3.org/2000/svg"
  xmlns="http://www.w3.org/2000/svg"
  xmlns:xlink="http://www.w3.org/1999/xlink"
  version="1.1"
  width="38.4556mm" height="37.9476mm" viewBox="0.0000 0.0000 38.4556 37.9476">
<title>SVG Image created as cd4011_beeper-brd.svg date 2024/10/01 11:23:34 </title>
  <desc>Image generated by PCBNEW </desc>
<g style="fill:#000000; fill-opacity:1.0000;stroke:#000000; stroke-opacity:1.0000;
stroke-linecap:round; stroke-linejoin:round;"
 transform="translate(0 0) scale(1 1)">
</g>
<g style="fill:#000000; fill-opacity:0.0; 
stroke:#000000; stroke-width:0.0000; stroke-opacity:1; 
stroke-linecap:round; stroke-linejoin:round;">
<g >
</g>
<g style="fill:#000000; fill-opacity:0.0; 
stroke:#000000; stroke-width:0.0000; stroke-opacity:1; 
stroke-linecap:round; stroke-linejoin:round;">
</g>
<g style="fill:#000000; fill-opacity:1.0000; 
stroke:#000000; stroke-width:0.0000; stroke-opacity:1; 
stroke-linecap:round; stroke-linejoin:round;">
<path style="fill:#000000; fill-opacity:1.0000; 
stroke:#000000; stroke-width:0.0000; stroke-opacity:1; 
stroke-linecap:round; stroke-linejoin:round;fill-rule:evenodd;"
d="M 35.7520,35.1900
35.7520,33.4900
34.0520,33.4900
34.0520,35.1900
Z" /> 
</g>
<g >
</g>
<g style="fill:#000000; fill-opacity:1.0000; 
stroke:#000000; stroke-width:0.0000; stroke-opacity:1; 
stroke-linecap:round; stroke-linejoin:round;">
<path style="fill:#000000; fill-opacity:1.0000; 
stroke:#000000; stroke-width:0.0000; stroke-opacity:1; 
stroke-linecap:round; stroke-linejoin:round;fill-rule:evenodd;"
d="M 27.1160,33.4900
25.4160,33.4900
25.4160,35.1900
27.1160,35.1900
Z" /> 
<circle cx="28.8060" cy="34.3400" r="0.8500" /> 
<circle cx="31.3460" cy="34.3400" r="0.8500" /> 
</g>
<g >
</g>
<g style="fill:#000000; fill-opacity:1.0000; 
stroke:#000000; stroke-width:0.0000; stroke-opacity:1; 
stroke-linecap:round; stroke-linejoin:round;">
</g>
<g style="fill:#000000; fill-opacity:1.0000; 
stroke:#000000; stroke-width:1.7500; stroke-opacity:1; 
stroke-linecap:round; stroke-linejoin:round;">
</g>
<g style="fill:#000000; fill-opacity:0.0; 
stroke:#000000; stroke-width:1.7500; stroke-opacity:1; 
stroke-linecap:round; stroke-linejoin:round;">
<path d="M21.1365 31.4150
L21.1365 30.9150
" />
<path d="M18.5965 31.4150
L18.5965 30.9150
" />
<path d="M16.0565 31.4150
L16.0565 30.9150
" />
</g>
<g style="fill:#000000; fill-opacity:0.0; 
stroke:#000000; stroke-width:0.0000; stroke-opacity:1; 
stroke-linecap:round; stroke-linejoin:round;">
</g>
<g style="fill:#000000; fill-opacity:1.0000; 
stroke:#000000; stroke-width:0.0000; stroke-opacity:1; 
stroke-linecap:round; stroke-linejoin:round;">
<path style="fill:#000000; fill-opacity:1.0000; 
stroke:#000000; stroke-width:0.0000; stroke-opacity:1; 
stroke-linecap:round; stroke-linejoin:round;fill-rule:evenodd;"
d="M 12.6415,30.0400
12.6415,32.2900
14.3915,32.2900
14.3915,30.0400
Z" /> 
</g>
<g >
</g>
<g style="fill:#000000; fill-opacity:1.0000; 
stroke:#000000; stroke-width:0.0000; stroke-opacity:1; 
stroke-linecap:round; stroke-linejoin:round;">
<circle cx="31.5391" cy="3.7500" r="1.2000" /> 
</g>
<g style="fill:#000000; fill-opacity:1.0000; 
stroke:#000000; stroke-width:0.0212; stroke-opacity:1; 
stroke-linecap:round; stroke-linejoin:round;">
</g>
<g style="fill:#000000; fill-opacity:1.0000; 
stroke:#000000; stroke-width:0.0000; stroke-opacity:1; 
stroke-linecap:round; stroke-linejoin:round;">
<circle cx="31.5391" cy="8.8300" r="1.2000" /> 
</g>
<g >
</g>
<g style="fill:#000000; fill-opacity:1.0000; 
stroke:#000000; stroke-width:0.0000; stroke-opacity:1; 
stroke-linecap:round; stroke-linejoin:round;">
<path style="fill:#000000; fill-opacity:1.0000; 
stroke:#000000; stroke-width:0.0000; stroke-opacity:1; 
stroke-linecap:round; stroke-linejoin:round;fill-rule:evenodd;"
d="M 7.4540,3.6673
5.4540,3.6673
5.4540,5.6673
7.4540,5.6673
Z" /> 
<circle cx="6.4540" cy="9.6673" r="1.0000" /> 
</g>
<g style="fill:#000000; fill-opacity:1.0000; 
stroke:#000000; stroke-width:0.0212; stroke-opacity:1; 
stroke-linecap:round; stroke-linejoin:round;">
</g>
<g >
</g>
<g style="fill:#000000; fill-opacity:1.0000; 
stroke:#000000; stroke-width:0.0212; stroke-opacity:1; 
stroke-linecap:round; stroke-linejoin:round;">
</g>
<g style="fill:#000000; fill-opacity:1.0000; 
stroke:#000000; stroke-width:0.0000; stroke-opacity:1; 
stroke-linecap:round; stroke-linejoin:round;">
<path style="fill:#000000; fill-opacity:1.0000; 
stroke:#000000; stroke-width:0.0000; stroke-opacity:1; 
stroke-linecap:round; stroke-linejoin:round;fill-rule:evenodd;"
d="M 32.7540,30.7950
32.7540,28.9950
30.9540,28.9950
30.9540,30.7950
Z" /> 
<circle cx="29.3140" cy="29.8950" r="0.9000" /> 
<circle cx="26.7740" cy="29.8950" r="0.9000" /> 
</g>
<g >
</g>
<g style="fill:#000000; fill-opacity:1.0000; 
stroke:#000000; stroke-width:0.0000; stroke-opacity:1; 
stroke-linecap:round; stroke-linejoin:round;">
<path style="fill:#000000; fill-opacity:1.0000; 
stroke:#000000; stroke-width:0.0000; stroke-opacity:1; 
stroke-linecap:round; stroke-linejoin:round;fill-rule:evenodd;"
d="M 27.8941,5.2950
27.8941,3.6950
26.2941,3.6950
26.2941,5.2950
Z" /> 
<circle cx="27.0941" cy="7.0350" r="0.8000" /> 
<circle cx="27.0941" cy="9.5750" r="0.8000" /> 
<circle cx="27.0941" cy="12.1150" r="0.8000" /> 
<circle cx="27.0941" cy="14.6550" r="0.8000" /> 
<circle cx="27.0941" cy="17.1950" r="0.8000" /> 
<circle cx="27.0941" cy="19.7350" r="0.8000" /> 
<circle cx="19.4741" cy="19.7350" r="0.8000" /> 
<circle cx="19.4741" cy="17.1950" r="0.8000" /> 
<circle cx="19.4741" cy="14.6550" r="0.8000" /> 
<circle cx="19.4741" cy="12.1150" r="0.8000" /> 
<circle cx="19.4741" cy="9.5750" r="0.8000" /> 
<circle cx="19.4741" cy="7.0350" r="0.8000" /> 
<circle cx="19.4741" cy="4.4950" r="0.8000" /> 
</g>
<g >
</g>
<g style="fill:#000000; fill-opacity:1.0000; 
stroke:#000000; stroke-width:0.0000; stroke-opacity:1; 
stroke-linecap:round; stroke-linejoin:round;">
<circle cx="14.7090" cy="19.7350" r="1.2000" /> 
</g>
<g style="fill:#000000; fill-opacity:1.0000; 
stroke:#000000; stroke-width:0.0212; stroke-opacity:1; 
stroke-linecap:round; stroke-linejoin:round;">
</g>
<g style="fill:#000000; fill-opacity:1.0000; 
stroke:#000000; stroke-width:0.0000; stroke-opacity:1; 
stroke-linecap:round; stroke-linejoin:round;">
<circle cx="14.7090" cy="4.4950" r="1.2000" /> 
</g>
<g >
</g>
<g style="fill:#000000; fill-opacity:1.0000; 
stroke:#000000; stroke-width:0.0000; stroke-opacity:1; 
stroke-linecap:round; stroke-linejoin:round;">
<circle cx="28.0440" cy="24.8150" r="1.2000" /> 
</g>
<g style="fill:#000000; fill-opacity:1.0000; 
stroke:#000000; stroke-width:0.0212; stroke-opacity:1; 
stroke-linecap:round; stroke-linejoin:round;">
</g>
<g style="fill:#000000; fill-opacity:1.0000; 
stroke:#000000; stroke-width:0.0000; stroke-opacity:1; 
stroke-linecap:round; stroke-linejoin:round;">
<circle cx="12.8040" cy="24.8150" r="1.2000" /> 
</g>
<g >
</g>
<g style="fill:#000000; fill-opacity:1.0000; 
stroke:#000000; stroke-width:0.0000; stroke-opacity:1; 
stroke-linecap:round; stroke-linejoin:round;">
</g>
<g style="fill:#000000; fill-opacity:1.0000; 
stroke:#000000; stroke-width:1.2000; stroke-opacity:1; 
stroke-linecap:round; stroke-linejoin:round;">
</g>
<g style="fill:#000000; fill-opacity:0.0; 
stroke:#000000; stroke-width:1.2000; stroke-opacity:1; 
stroke-linecap:round; stroke-linejoin:round;">
<path d="M8.5590 26.7200
L8.1590 26.7200
" />
</g>
<g style="fill:#000000; fill-opacity:1.0000; 
stroke:#000000; stroke-width:0.0000; stroke-opacity:1; 
stroke-linecap:round; stroke-linejoin:round;">
<circle cx="3.2790" cy="26.7200" r="0.6000" /> 
</g>
<g >
</g>
<g style="fill:#000000; fill-opacity:1.0000; 
stroke:#000000; stroke-width:0.0000; stroke-opacity:1; 
stroke-linecap:round; stroke-linejoin:round;">
<path style="fill:#000000; fill-opacity:1.0000; 
stroke:#000000; stroke-width:0.0000; stroke-opacity:1; 
stroke-linecap:round; stroke-linejoin:round;fill-rule:evenodd;"
d="M 30.8227,12.5850
30.8227,14.1850
32.4227,14.1850
32.4227,12.5850
Z" /> 
<circle cx="33.6227" cy="13.3850" r="0.8000" /> 
</g>
<g style="fill:#000000; fill-opacity:1.0000; 
stroke:#000000; stroke-width:0.0212; stroke-opacity:1; 
stroke-linecap:round; stroke-linejoin:round;">
</g>
<g >
</g>
<g style="fill:#000000; fill-opacity:1.0000; 
stroke:#000000; stroke-width:0.0212; stroke-opacity:1; 
stroke-linecap:round; stroke-linejoin:round;">
</g>
<g style="fill:#000000; fill-opacity:1.0000; 
stroke:#000000; stroke-width:0.0000; stroke-opacity:1; 
stroke-linecap:round; stroke-linejoin:round;">
<path style="fill:#000000; fill-opacity:1.0000; 
stroke:#000000; stroke-width:0.0000; stroke-opacity:1; 
stroke-linecap:round; stroke-linejoin:round;fill-rule:evenodd;"
d="M 30.5954,18.9350
30.5954,20.5350
32.1954,20.5350
32.1954,18.9350
Z" /> 
<circle cx="33.8954" cy="19.7350" r="0.8000" /> 
</g>
<g style="fill:#000000; fill-opacity:1.0000; 
stroke:#000000; stroke-width:0.0212; stroke-opacity:1; 
stroke-linecap:round; stroke-linejoin:round;">
</g>
<g >
</g>
<g >
</g>
<g style="fill:#000000; fill-opacity:1.0000; 
stroke:#000000; stroke-width:0.0212; stroke-opacity:1; 
stroke-linecap:round; stroke-linejoin:round;">
</g>
<g style="fill:#000000; fill-opacity:1.0000; 
stroke:#000000; stroke-width:0.5000; stroke-opacity:1; 
stroke-linecap:round; stroke-linejoin:round;">
</g>
<g style="fill:#000000; fill-opacity:0.0; 
stroke:#000000; stroke-width:0.5000; stroke-opacity:1; 
stroke-linecap:round; stroke-linejoin:round;">
<path d="M19.4741 14.6550
L21.1860 12.9431
" />
<path d="M21.1860 12.9431
L21.1860 11.2869
" />
<path d="M21.1860 11.2869
L19.4741 9.5750
" />
<path d="M31.5391 8.2389
L30.2030 9.5750
" />
<path d="M30.2030 9.5750
L27.0941 9.5750
" />
<path d="M28.8060 34.3400
L30.8380 36.3720
" />
<path d="M30.8380 36.3720
L32.8700 36.3720
" />
<path d="M32.8700 36.3720
L34.9020 34.3400
" />
<path d="M25.5040 32.4350
L25.7580 32.4350
" />
<path d="M25.7580 32.4350
L31.8540 32.4350
" />
<path d="M26.2660 34.3400
L26.2660 32.9430
" />
<path d="M26.2660 32.9430
L25.7580 32.4350
" />
<path d="M21.1365 31.1650
L21.1365 33.6910
" />
<path d="M4.5487 2.5900
L17.2490 2.5900
" />
<path d="M11.7880 35.8640
L5.1840 29.2600
" />
<path d="M21.1365 33.6910
L18.9635 35.8640
" />
<path d="M2.6440 4.4947
L4.5487 2.5900
" />
<path d="M5.1840 29.2600
L5.1840 19.7350
" />
<path d="M18.9635 35.8640
L11.7880 35.8640
" />
<path d="M5.1840 19.7350
L2.6440 17.1950
" />
<path d="M2.6440 17.1950
L2.6440 4.4947
" />
<path d="M17.2490 2.5900
L17.2490 4.8099
" />
<path d="M17.2490 4.8099
L19.4741 7.0350
" />
<path d="M3.2790 26.7200
L3.2790 29.2600
" />
<path d="M10.7760 36.7570
L19.9120 36.7570
" />
<path d="M13.5165 29.1825
L13.5165 31.1650
" />
<path d="M19.9120 36.7570
L22.9640 33.7050
" />
<path d="M3.2790 29.2600
L10.7760 36.7570
" />
<path d="M22.9640 33.7050
L22.9640 29.8950
" />
<path d="M22.9640 29.8950
L21.6940 28.6250
" />
<path d="M21.6940 28.6250
L14.0740 28.6250
" />
<path d="M14.0740 28.6250
L13.5165 29.1825
" />
<path d="M16.0565 31.1650
L16.0565 31.7225
" />
<path d="M11.4690 33.0050
L10.8990 32.4350
" />
<path d="M14.7740 33.0050
L11.4690 33.0050
" />
<path d="M31.8540 32.4350
L31.8540 29.8950
" />
<path d="M10.8990 32.4350
L10.8990 28.6250
" />
<path d="M10.8990 28.6250
L11.7880 27.7360
" />
<path d="M22.0750 27.7360
L24.2340 29.8950
" />
<path d="M11.7880 27.7360
L22.0750 27.7360
" />
<path d="M24.2340 29.8950
L24.2340 31.1650
" />
<path d="M24.2340 31.1650
L25.5040 32.4350
" />
<path d="M16.0565 31.7225
L14.7740 33.0050
" />
<path d="M19.4741 4.4950
L19.4741 1.6401
" />
<path d="M19.4741 1.6401
L19.1540 1.3200
" />
<path d="M19.1593 1.3200
L1.3740 1.3200
" />
<path d="M1.3740 1.3200
L1.3740 24.8150
" />
<path d="M1.3740 24.8150
L3.2790 26.7200
" />
<path d="M14.6167 19.1000
L15.2517 19.7350
" />
<path d="M15.2517 19.7350
L19.4741 19.7350
" />
<path d="M6.4540 9.6673
L14.7090 17.9223
" />
<path d="M14.7090 17.9223
L14.7090 19.7350
" />
<path d="M27.0941 4.4950
L28.8891 4.4950
" />
<path d="M28.8891 4.4950
L29.6341 3.7500
" />
<path d="M32.8091 3.5451
L33.6227 4.3586
" />
<path d="M33.6227 19.4623
L33.8954 19.7350
" />
<path d="M33.6227 4.3586
L33.6227 19.4623
" />
<path d="M19.4741 17.1950
L20.7441 17.1950
" />
<path d="M27.8168 22.9100
L31.3954 19.3314
" />
<path d="M20.7441 17.1950
L26.4591 22.9100
" />
<path d="M26.4591 22.9100
L27.8168 22.9100
" />
<path d="M31.6227 13.3850
L28.3641 13.3850
" />
<path d="M31.3954 19.3314
L31.3954 18.4650
" />
<path d="M31.3954 18.4650
L31.6227 18.2377
" />
<path d="M31.6227 18.2377
L31.6227 13.3850
" />
<path d="M28.3641 13.3850
L27.0941 12.1150
" />
<path d="M29.3140 29.8950
L28.0440 28.6250
" />
<path d="M28.0440 28.6250
L28.0440 24.8150
" />
<path d="M7.7240 26.7200
L23.5990 26.7200
" />
<path d="M23.5990 26.7200
L26.7740 29.8950
" />
<path d="M31.5391 3.7500
L29.6341 3.7500
" />
<path d="M31.5391 3.7500
L32.8091 3.7500
" />
<path d="M12.8040 24.8150
L12.8040 21.0050
" />
<path d="M3.9140 5.1300
L4.3767 4.6673
" />
<path d="M3.9140 12.1150
L3.9140 5.1300
" />
<path d="M12.8040 21.0050
L3.9140 12.1150
" />
<path d="M6.4540 4.6673
L9.8014 4.6673
" />
<path d="M4.3767 4.6673
L6.4540 4.6673
" />
<path d="M9.8014 4.6673
L17.2490 12.1150
" />
<path d="M17.2490 12.1150
L19.4741 12.1150
" />
<path d="M17.1465 29.7150
L18.5965 31.1650
" />
<path d="M14.9665 29.7150
L17.1465 29.7150
" />
<path d="M13.5165 31.1650
L14.9665 29.7150
" />
<path d="M21.0590 7.0350
L22.9640 8.9400
" />
<path d="M19.4741 7.0350
L21.0590 7.0350
" />
<path d="M27.0941 19.7350
L27.0941 17.1950
" />
<path d="M22.9640 12.4285
L27.0941 16.5586
" />
<path d="M24.8690 7.0350
L27.0941 7.0350
" />
<path d="M27.0941 16.5586
L27.0941 17.1950
" />
<path d="M22.9640 8.9400
L22.9640 12.4285
" />
<path d="M22.9640 8.9400
L24.8690 7.0350
" />
<path d="M26.1390 9.5750
L27.0941 9.5750
" />
<path d="M27.0941 14.6550
L24.8690 12.4299
" />
<path d="M24.8690 12.4299
L24.8690 10.8450
" />
<path d="M24.8690 10.8450
L26.1390 9.5750
" />
<path d="M19.4741 9.5750
L15.6641 5.7650
" />
<path d="M15.3440 4.4950
L14.7090 3.8600
" />
<path d="M15.3440 5.7650
L15.3440 4.4950
" />
<path d="M15.6641 5.7650
L15.3440 5.7650
" />
</g>
<g >
</g>
</g>
<g style="fill:#000000; fill-opacity:0.0; 
stroke:#000000; stroke-width:0.5000; stroke-opacity:1; 
stroke-linecap:round; stroke-linejoin:round;">
</g>
<g style="fill:#000000; fill-opacity:0.0; 
stroke:#000000; stroke-width:0.1000; stroke-opacity:1; 
stroke-linecap:round; stroke-linejoin:round;">
<path style="fill:#000000; fill-opacity:0.0; 
stroke:#000000; stroke-width:0.1000; stroke-opacity:1; 
stroke-linecap:round; stroke-linejoin:round;fill:none"
d="M 36.2990,0.0500
0.1040,0.0500
0.1040,37.0070
36.2990,37.0070
Z" /> 
<g >
</g>
<g >
</g>
<g >
</g>
<g >
</g>
<g >
</g>
<g >
</g>
<g >
</g>
<g >
</g>
<g >
</g>
<g >
</g>
<g >
</g>
<g >
</g>
<g >
</g>
<g >
</g>
<g >
</g>
</g> 
</svg>
