<?xml version="1.0" standalone="no"?>
 <!DOCTYPE svg PUBLIC "-//W3C//DTD SVG 1.1//EN" 
 "http://www.w3.org/Graphics/SVG/1.1/DTD/svg11.dtd"> 
<svg
  xmlns:svg="http://www.w3.org/2000/svg"
  xmlns="http://www.w3.org/2000/svg"
  xmlns:xlink="http://www.w3.org/1999/xlink"
  version="1.1"
  width="38.4556mm" height="37.9476mm" viewBox="0.0000 0.0000 38.4556 37.9476">
<title>SVG Image created as cd4011_beeper-brd.svg date 2024/10/01 11:24:18 </title>
  <desc>Image generated by PCBNEW </desc>
<g style="fill:#000000; fill-opacity:1.0000;stroke:#000000; stroke-opacity:1.0000;
stroke-linecap:round; stroke-linejoin:round;"
 transform="translate(0 0) scale(1 1)">
</g>
<g style="fill:#000000; fill-opacity:0.0; 
stroke:#000000; stroke-width:0.0000; stroke-opacity:1; 
stroke-linecap:round; stroke-linejoin:round;">
<g >
</g>
<g style="fill:#000000; fill-opacity:0.0; 
stroke:#000000; stroke-width:0.0000; stroke-opacity:1; 
stroke-linecap:round; stroke-linejoin:round;">
</g>
<g style="fill:#000000; fill-opacity:1.0000; 
stroke:#000000; stroke-width:0.0000; stroke-opacity:1; 
stroke-linecap:round; stroke-linejoin:round;">
<path style="fill:#000000; fill-opacity:1.0000; 
stroke:#000000; stroke-width:0.0000; stroke-opacity:1; 
stroke-linecap:round; stroke-linejoin:round;fill-rule:evenodd;"
d="M 2.7036,35.1900
2.7036,33.4900
4.4036,33.4900
4.4036,35.1900
Z" /> 
</g>
<g >
</g>
<g style="fill:#000000; fill-opacity:1.0000; 
stroke:#000000; stroke-width:0.0000; stroke-opacity:1; 
stroke-linecap:round; stroke-linejoin:round;">
<path style="fill:#000000; fill-opacity:1.0000; 
stroke:#000000; stroke-width:0.0000; stroke-opacity:1; 
stroke-linecap:round; stroke-linejoin:round;fill-rule:evenodd;"
d="M 11.3396,33.4900
13.0396,33.4900
13.0396,35.1900
11.3396,35.1900
Z" /> 
<circle cx="9.6496" cy="34.3400" r="0.8500" /> 
<circle cx="7.1096" cy="34.3400" r="0.8500" /> 
</g>
<g >
</g>
<g style="fill:#000000; fill-opacity:1.0000; 
stroke:#000000; stroke-width:0.0000; stroke-opacity:1; 
stroke-linecap:round; stroke-linejoin:round;">
</g>
<g style="fill:#000000; fill-opacity:1.0000; 
stroke:#000000; stroke-width:1.7500; stroke-opacity:1; 
stroke-linecap:round; stroke-linejoin:round;">
</g>
<g style="fill:#000000; fill-opacity:0.0; 
stroke:#000000; stroke-width:1.7500; stroke-opacity:1; 
stroke-linecap:round; stroke-linejoin:round;">
<path d="M17.3191 31.4150
L17.3191 30.9150
" />
<path d="M19.8591 31.4150
L19.8591 30.9150
" />
<path d="M22.3991 31.4150
L22.3991 30.9150
" />
</g>
<g style="fill:#000000; fill-opacity:0.0; 
stroke:#000000; stroke-width:0.0000; stroke-opacity:1; 
stroke-linecap:round; stroke-linejoin:round;">
</g>
<g style="fill:#000000; fill-opacity:1.0000; 
stroke:#000000; stroke-width:0.0000; stroke-opacity:1; 
stroke-linecap:round; stroke-linejoin:round;">
<path style="fill:#000000; fill-opacity:1.0000; 
stroke:#000000; stroke-width:0.0000; stroke-opacity:1; 
stroke-linecap:round; stroke-linejoin:round;fill-rule:evenodd;"
d="M 25.8141,30.0400
25.8141,32.2900
24.0641,32.2900
24.0641,30.0400
Z" /> 
</g>
<g >
</g>
<g style="fill:#000000; fill-opacity:1.0000; 
stroke:#000000; stroke-width:0.0000; stroke-opacity:1; 
stroke-linecap:round; stroke-linejoin:round;">
<circle cx="6.9165" cy="3.7500" r="1.2000" /> 
</g>
<g style="fill:#000000; fill-opacity:1.0000; 
stroke:#000000; stroke-width:0.0212; stroke-opacity:1; 
stroke-linecap:round; stroke-linejoin:round;">
</g>
<g style="fill:#000000; fill-opacity:1.0000; 
stroke:#000000; stroke-width:0.0000; stroke-opacity:1; 
stroke-linecap:round; stroke-linejoin:round;">
<circle cx="6.9165" cy="8.8300" r="1.2000" /> 
</g>
<g >
</g>
<g style="fill:#000000; fill-opacity:1.0000; 
stroke:#000000; stroke-width:0.0000; stroke-opacity:1; 
stroke-linecap:round; stroke-linejoin:round;">
<path style="fill:#000000; fill-opacity:1.0000; 
stroke:#000000; stroke-width:0.0000; stroke-opacity:1; 
stroke-linecap:round; stroke-linejoin:round;fill-rule:evenodd;"
d="M 31.0016,3.6673
33.0016,3.6673
33.0016,5.6673
31.0016,5.6673
Z" /> 
<circle cx="32.0016" cy="9.6673" r="1.0000" /> 
</g>
<g style="fill:#000000; fill-opacity:1.0000; 
stroke:#000000; stroke-width:0.0212; stroke-opacity:1; 
stroke-linecap:round; stroke-linejoin:round;">
</g>
<g >
</g>
<g style="fill:#000000; fill-opacity:1.0000; 
stroke:#000000; stroke-width:0.0212; stroke-opacity:1; 
stroke-linecap:round; stroke-linejoin:round;">
</g>
<g style="fill:#000000; fill-opacity:1.0000; 
stroke:#000000; stroke-width:0.0000; stroke-opacity:1; 
stroke-linecap:round; stroke-linejoin:round;">
<path style="fill:#000000; fill-opacity:1.0000; 
stroke:#000000; stroke-width:0.0000; stroke-opacity:1; 
stroke-linecap:round; stroke-linejoin:round;fill-rule:evenodd;"
d="M 5.7016,30.7950
5.7016,28.9950
7.5016,28.9950
7.5016,30.7950
Z" /> 
<circle cx="9.1416" cy="29.8950" r="0.9000" /> 
<circle cx="11.6816" cy="29.8950" r="0.9000" /> 
</g>
<g >
</g>
<g style="fill:#000000; fill-opacity:1.0000; 
stroke:#000000; stroke-width:0.0000; stroke-opacity:1; 
stroke-linecap:round; stroke-linejoin:round;">
<path style="fill:#000000; fill-opacity:1.0000; 
stroke:#000000; stroke-width:0.0000; stroke-opacity:1; 
stroke-linecap:round; stroke-linejoin:round;fill-rule:evenodd;"
d="M 10.5615,5.2950
10.5615,3.6950
12.1615,3.6950
12.1615,5.2950
Z" /> 
<circle cx="11.3615" cy="7.0350" r="0.8000" /> 
<circle cx="11.3615" cy="9.5750" r="0.8000" /> 
<circle cx="11.3615" cy="12.1150" r="0.8000" /> 
<circle cx="11.3615" cy="14.6550" r="0.8000" /> 
<circle cx="11.3615" cy="17.1950" r="0.8000" /> 
<circle cx="11.3615" cy="19.7350" r="0.8000" /> 
<circle cx="18.9815" cy="19.7350" r="0.8000" /> 
<circle cx="18.9815" cy="17.1950" r="0.8000" /> 
<circle cx="18.9815" cy="14.6550" r="0.8000" /> 
<circle cx="18.9815" cy="12.1150" r="0.8000" /> 
<circle cx="18.9815" cy="9.5750" r="0.8000" /> 
<circle cx="18.9815" cy="7.0350" r="0.8000" /> 
<circle cx="18.9815" cy="4.4950" r="0.8000" /> 
</g>
<g >
</g>
<g style="fill:#000000; fill-opacity:1.0000; 
stroke:#000000; stroke-width:0.0000; stroke-opacity:1; 
stroke-linecap:round; stroke-linejoin:round;">
<circle cx="23.7466" cy="19.7350" r="1.2000" /> 
</g>
<g style="fill:#000000; fill-opacity:1.0000; 
stroke:#000000; stroke-width:0.0212; stroke-opacity:1; 
stroke-linecap:round; stroke-linejoin:round;">
</g>
<g style="fill:#000000; fill-opacity:1.0000; 
stroke:#000000; stroke-width:0.0000; stroke-opacity:1; 
stroke-linecap:round; stroke-linejoin:round;">
<circle cx="23.7466" cy="4.4950" r="1.2000" /> 
</g>
<g >
</g>
<g style="fill:#000000; fill-opacity:1.0000; 
stroke:#000000; stroke-width:0.0000; stroke-opacity:1; 
stroke-linecap:round; stroke-linejoin:round;">
<circle cx="10.4116" cy="24.8150" r="1.2000" /> 
</g>
<g style="fill:#000000; fill-opacity:1.0000; 
stroke:#000000; stroke-width:0.0212; stroke-opacity:1; 
stroke-linecap:round; stroke-linejoin:round;">
</g>
<g style="fill:#000000; fill-opacity:1.0000; 
stroke:#000000; stroke-width:0.0000; stroke-opacity:1; 
stroke-linecap:round; stroke-linejoin:round;">
<circle cx="25.6516" cy="24.8150" r="1.2000" /> 
</g>
<g >
</g>
<g style="fill:#000000; fill-opacity:1.0000; 
stroke:#000000; stroke-width:0.0000; stroke-opacity:1; 
stroke-linecap:round; stroke-linejoin:round;">
</g>
<g style="fill:#000000; fill-opacity:1.0000; 
stroke:#000000; stroke-width:1.2000; stroke-opacity:1; 
stroke-linecap:round; stroke-linejoin:round;">
</g>
<g style="fill:#000000; fill-opacity:0.0; 
stroke:#000000; stroke-width:1.2000; stroke-opacity:1; 
stroke-linecap:round; stroke-linejoin:round;">
<path d="M29.8966 26.7200
L30.2966 26.7200
" />
</g>
<g style="fill:#000000; fill-opacity:1.0000; 
stroke:#000000; stroke-width:0.0000; stroke-opacity:1; 
stroke-linecap:round; stroke-linejoin:round;">
<circle cx="35.1766" cy="26.7200" r="0.6000" /> 
</g>
<g >
</g>
<g style="fill:#000000; fill-opacity:1.0000; 
stroke:#000000; stroke-width:0.0000; stroke-opacity:1; 
stroke-linecap:round; stroke-linejoin:round;">
<path style="fill:#000000; fill-opacity:1.0000; 
stroke:#000000; stroke-width:0.0000; stroke-opacity:1; 
stroke-linecap:round; stroke-linejoin:round;fill-rule:evenodd;"
d="M 7.6329,12.5850
7.6329,14.1850
6.0329,14.1850
6.0329,12.5850
Z" /> 
<circle cx="4.8329" cy="13.3850" r="0.8000" /> 
</g>
<g style="fill:#000000; fill-opacity:1.0000; 
stroke:#000000; stroke-width:0.0212; stroke-opacity:1; 
stroke-linecap:round; stroke-linejoin:round;">
</g>
<g >
</g>
<g style="fill:#000000; fill-opacity:1.0000; 
stroke:#000000; stroke-width:0.0212; stroke-opacity:1; 
stroke-linecap:round; stroke-linejoin:round;">
</g>
<g style="fill:#000000; fill-opacity:1.0000; 
stroke:#000000; stroke-width:0.0000; stroke-opacity:1; 
stroke-linecap:round; stroke-linejoin:round;">
<path style="fill:#000000; fill-opacity:1.0000; 
stroke:#000000; stroke-width:0.0000; stroke-opacity:1; 
stroke-linecap:round; stroke-linejoin:round;fill-rule:evenodd;"
d="M 7.8602,18.9350
7.8602,20.5350
6.2602,20.5350
6.2602,18.9350
Z" /> 
<circle cx="4.5602" cy="19.7350" r="0.8000" /> 
</g>
<g style="fill:#000000; fill-opacity:1.0000; 
stroke:#000000; stroke-width:0.0212; stroke-opacity:1; 
stroke-linecap:round; stroke-linejoin:round;">
</g>
<g >
</g>
<g >
</g>
<g style="fill:#000000; fill-opacity:1.0000; 
stroke:#000000; stroke-width:0.0212; stroke-opacity:1; 
stroke-linecap:round; stroke-linejoin:round;">
</g>
<g style="fill:#000000; fill-opacity:1.0000; 
stroke:#000000; stroke-width:0.5000; stroke-opacity:1; 
stroke-linecap:round; stroke-linejoin:round;">
</g>
<g style="fill:#000000; fill-opacity:0.0; 
stroke:#000000; stroke-width:0.5000; stroke-opacity:1; 
stroke-linecap:round; stroke-linejoin:round;">
<path d="M18.9815 14.6550
L17.2696 12.9431
" />
<path d="M17.2696 12.9431
L17.2696 11.2869
" />
<path d="M17.2696 11.2869
L18.9815 9.5750
" />
<path d="M6.9165 8.2389
L8.2526 9.5750
" />
<path d="M8.2526 9.5750
L11.3615 9.5750
" />
<path d="M9.6496 34.3400
L7.6176 36.3720
" />
<path d="M7.6176 36.3720
L5.5856 36.3720
" />
<path d="M5.5856 36.3720
L3.5536 34.3400
" />
<path d="M12.9516 32.4350
L12.6976 32.4350
" />
<path d="M12.6976 32.4350
L6.6016 32.4350
" />
<path d="M12.1896 34.3400
L12.1896 32.9430
" />
<path d="M12.1896 32.9430
L12.6976 32.4350
" />
<path d="M17.3191 31.1650
L17.3191 33.6910
" />
<path d="M33.9069 2.5900
L21.2066 2.5900
" />
<path d="M26.6676 35.8640
L33.2716 29.2600
" />
<path d="M17.3191 33.6910
L19.4921 35.8640
" />
<path d="M35.8116 4.4947
L33.9069 2.5900
" />
<path d="M33.2716 29.2600
L33.2716 19.7350
" />
<path d="M19.4921 35.8640
L26.6676 35.8640
" />
<path d="M33.2716 19.7350
L35.8116 17.1950
" />
<path d="M35.8116 17.1950
L35.8116 4.4947
" />
<path d="M21.2066 2.5900
L21.2066 4.8099
" />
<path d="M21.2066 4.8099
L18.9815 7.0350
" />
<path d="M35.1766 26.7200
L35.1766 29.2600
" />
<path d="M27.6796 36.7570
L18.5436 36.7570
" />
<path d="M24.9391 29.1825
L24.9391 31.1650
" />
<path d="M18.5436 36.7570
L15.4916 33.7050
" />
<path d="M35.1766 29.2600
L27.6796 36.7570
" />
<path d="M15.4916 33.7050
L15.4916 29.8950
" />
<path d="M15.4916 29.8950
L16.7616 28.6250
" />
<path d="M16.7616 28.6250
L24.3816 28.6250
" />
<path d="M24.3816 28.6250
L24.9391 29.1825
" />
<path d="M22.3991 31.1650
L22.3991 31.7225
" />
<path d="M26.9866 33.0050
L27.5566 32.4350
" />
<path d="M23.6816 33.0050
L26.9866 33.0050
" />
<path d="M6.6016 32.4350
L6.6016 29.8950
" />
<path d="M27.5566 32.4350
L27.5566 28.6250
" />
<path d="M27.5566 28.6250
L26.6676 27.7360
" />
<path d="M16.3806 27.7360
L14.2216 29.8950
" />
<path d="M26.6676 27.7360
L16.3806 27.7360
" />
<path d="M14.2216 29.8950
L14.2216 31.1650
" />
<path d="M14.2216 31.1650
L12.9516 32.4350
" />
<path d="M22.3991 31.7225
L23.6816 33.0050
" />
<path d="M18.9815 4.4950
L18.9815 1.6401
" />
<path d="M18.9815 1.6401
L19.3016 1.3200
" />
<path d="M19.2963 1.3200
L37.0816 1.3200
" />
<path d="M37.0816 1.3200
L37.0816 24.8150
" />
<path d="M37.0816 24.8150
L35.1766 26.7200
" />
<path d="M23.8389 19.1000
L23.2039 19.7350
" />
<path d="M23.2039 19.7350
L18.9815 19.7350
" />
<path d="M32.0016 9.6673
L23.7466 17.9223
" />
<path d="M23.7466 17.9223
L23.7466 19.7350
" />
<path d="M11.3615 4.4950
L9.5665 4.4950
" />
<path d="M9.5665 4.4950
L8.8215 3.7500
" />
<path d="M5.6465 3.5451
L4.8329 4.3586
" />
<path d="M4.8329 19.4623
L4.5602 19.7350
" />
<path d="M4.8329 4.3586
L4.8329 19.4623
" />
<path d="M18.9815 17.1950
L17.7115 17.1950
" />
<path d="M10.6388 22.9100
L7.0602 19.3314
" />
<path d="M17.7115 17.1950
L11.9965 22.9100
" />
<path d="M11.9965 22.9100
L10.6388 22.9100
" />
<path d="M6.8329 13.3850
L10.0915 13.3850
" />
<path d="M7.0602 19.3314
L7.0602 18.4650
" />
<path d="M7.0602 18.4650
L6.8329 18.2377
" />
<path d="M6.8329 18.2377
L6.8329 13.3850
" />
<path d="M10.0915 13.3850
L11.3615 12.1150
" />
<path d="M9.1416 29.8950
L10.4116 28.6250
" />
<path d="M10.4116 28.6250
L10.4116 24.8150
" />
<path d="M30.7316 26.7200
L14.8566 26.7200
" />
<path d="M14.8566 26.7200
L11.6816 29.8950
" />
<path d="M6.9165 3.7500
L8.8215 3.7500
" />
<path d="M6.9165 3.7500
L5.6465 3.7500
" />
<path d="M25.6516 24.8150
L25.6516 21.0050
" />
<path d="M34.5416 5.1300
L34.0789 4.6673
" />
<path d="M34.5416 12.1150
L34.5416 5.1300
" />
<path d="M25.6516 21.0050
L34.5416 12.1150
" />
<path d="M32.0016 4.6673
L28.6542 4.6673
" />
<path d="M34.0789 4.6673
L32.0016 4.6673
" />
<path d="M28.6542 4.6673
L21.2066 12.1150
" />
<path d="M21.2066 12.1150
L18.9815 12.1150
" />
<path d="M21.3091 29.7150
L19.8591 31.1650
" />
<path d="M23.4891 29.7150
L21.3091 29.7150
" />
<path d="M24.9391 31.1650
L23.4891 29.7150
" />
<path d="M17.3966 7.0350
L15.4916 8.9400
" />
<path d="M18.9815 7.0350
L17.3966 7.0350
" />
<path d="M11.3615 19.7350
L11.3615 17.1950
" />
<path d="M15.4916 12.4285
L11.3615 16.5586
" />
<path d="M13.5866 7.0350
L11.3615 7.0350
" />
<path d="M11.3615 16.5586
L11.3615 17.1950
" />
<path d="M15.4916 8.9400
L15.4916 12.4285
" />
<path d="M15.4916 8.9400
L13.5866 7.0350
" />
<path d="M12.3166 9.5750
L11.3615 9.5750
" />
<path d="M11.3615 14.6550
L13.5866 12.4299
" />
<path d="M13.5866 12.4299
L13.5866 10.8450
" />
<path d="M13.5866 10.8450
L12.3166 9.5750
" />
<path d="M18.9815 9.5750
L22.7915 5.7650
" />
<path d="M23.1116 4.4950
L23.7466 3.8600
" />
<path d="M23.1116 5.7650
L23.1116 4.4950
" />
<path d="M22.7915 5.7650
L23.1116 5.7650
" />
</g>
<g >
</g>
</g>
<g style="fill:#000000; fill-opacity:0.0; 
stroke:#000000; stroke-width:0.5000; stroke-opacity:1; 
stroke-linecap:round; stroke-linejoin:round;">
</g>
<g style="fill:#000000; fill-opacity:0.0; 
stroke:#000000; stroke-width:0.1000; stroke-opacity:1; 
stroke-linecap:round; stroke-linejoin:round;">
<path style="fill:#000000; fill-opacity:0.0; 
stroke:#000000; stroke-width:0.1000; stroke-opacity:1; 
stroke-linecap:round; stroke-linejoin:round;fill:none"
d="M 2.1566,0.0500
38.3516,0.0500
38.3516,37.0070
2.1566,37.0070
Z" /> 
<g >
</g>
<g >
</g>
<g >
</g>
<g >
</g>
<g >
</g>
<g >
</g>
<g >
</g>
<g >
</g>
<g >
</g>
<g >
</g>
<g >
</g>
<g >
</g>
<g >
</g>
<g >
</g>
<g >
</g>
</g> 
</svg>
